<?xml version="1.0" encoding="UTF-8" standalone="no"?>
<svg width="197px" height="234px" viewBox="0 0 197 234" version="1.1" xmlns="http://www.w3.org/2000/svg" xmlns:xlink="http://www.w3.org/1999/xlink">
    <!-- Generator: Sketch 3.6.1 (26313) - http://www.bohemiancoding.com/sketch -->
    <title>lock</title>
    <desc>Created with Sketch.</desc>
    <defs></defs>
    <g id="Page-1" stroke="none" stroke-width="1" fill="none" fill-rule="evenodd">
        <g id="lock" fill="#3C92CA">
            <g id="Layer_1">
                <g id="Group">
                    <path d="M98.625,0.412 C62.325,0.412 32.825,29.912 32.825,66.212 L32.825,100.212 L10.325,100.212 C4.825,100.212 0.425,104.612 0.425,110.112 L0.425,224.012 C0.425,229.512 4.825,233.912 10.325,233.912 L186.825,233.912 C192.325,233.912 196.725,229.512 196.725,224.012 L196.725,110.012 C196.725,104.512 192.325,100.112 186.825,100.112 L164.325,100.112 L164.325,66.112 C164.425,29.912 134.925,0.412 98.625,0.412 L98.625,0.412 Z M52.625,66.212 C52.625,40.812 73.225,20.212 98.625,20.212 C124.025,20.212 144.625,40.812 144.625,66.212 L144.625,100.212 L52.725,100.212 L52.725,66.212 L52.625,66.212 L52.625,66.212 Z M177.025,119.912 L177.025,214.012 L20.225,214.012 L20.225,119.912 L177.025,119.912 L177.025,119.912 L177.025,119.912 Z" id="Shape"></path>
                </g>
            </g>
        </g>
    </g>
</svg>