<?xml version="1.0" encoding="UTF-8" standalone="no"?>
<svg width="219px" height="159px" viewBox="0 0 219 159" version="1.1" xmlns="http://www.w3.org/2000/svg" xmlns:xlink="http://www.w3.org/1999/xlink">
    <!-- Generator: Sketch 3.6.1 (26313) - http://www.bohemiancoding.com/sketch -->
    <title>parked-car</title>
    <desc>Created with Sketch.</desc>
    <defs>
        <path id="path-1" d="M0.06,0.8 L0.06,122.999 L161.246,122.999 L161.246,0.8 L0.06,0.8 L0.06,0.8 Z"></path>
    </defs>
    <g id="Page-1" stroke="none" stroke-width="1" fill="none" fill-rule="evenodd">
        <g id="parked-car">
            <g id="Group-3" transform="translate(0.000000, 36.000000)">
                <mask id="mask-2" fill="white">
                    <use xlink:href="#path-1"></use>
                </mask>
                <g id="Clip-2"></g>
                <path d="M154.609,29.417 C153.906,29.417 153.188,29.519 152.465,29.718 L144.328,31.96 L135.879,11.374 C133.484,5.542 126.41,0.8 120.105,0.8 L41.027,0.8 C34.723,0.8 27.648,5.542 25.254,11.374 L16.816,31.929 L8.777,29.718 C8.059,29.519 7.34,29.417 6.637,29.417 C2.793,29.417 0,32.355 0,36.401 L0,41.198 C0,45.925 3.844,49.769 8.57,49.769 L9.492,49.769 L8.125,53.093 C5.902,58.507 4.094,67.683 4.094,73.538 L4.094,114.429 C4.094,119.155 7.938,122.999 12.66,122.999 L23.855,122.999 C28.578,122.999 32.422,119.155 32.422,114.429 L32.422,104.218 L128.707,104.218 L128.707,114.429 C128.707,119.155 132.555,122.999 137.277,122.999 L148.469,122.999 C153.195,122.999 157.039,119.155 157.039,114.429 L157.039,73.538 C157.039,67.683 155.227,58.511 153.004,53.093 L151.641,49.769 L152.676,49.769 C157.398,49.769 161.246,45.925 161.246,41.202 L161.246,36.405 C161.246,32.358 158.453,29.417 154.609,29.417 L154.609,29.417 Z M22.957,45.116 L35.742,13.983 C37.172,10.495 41.43,7.64 45.199,7.64 L115.934,7.64 C119.703,7.64 123.961,10.491 125.391,13.983 L138.176,45.116 C139.605,48.605 137.691,51.46 133.922,51.46 L27.211,51.46 C23.441,51.456 21.527,48.605 22.957,45.116 L22.957,45.116 Z M51.492,84.499 C51.492,86.382 49.949,87.925 48.066,87.925 L23.781,87.925 C21.898,87.925 20.355,86.382 20.355,84.499 L20.355,72.847 C20.355,70.96 21.898,69.417 23.781,69.417 L48.066,69.417 C49.949,69.417 51.492,70.96 51.492,72.847 L51.492,84.499 Z M140.547,84.499 C140.547,86.382 139.004,87.925 137.121,87.925 L112.84,87.925 C110.953,87.925 109.41,86.382 109.41,84.499 L109.41,72.847 C109.41,70.96 110.953,69.417 112.84,69.417 L137.121,69.417 C139.004,69.417 140.547,70.96 140.547,72.847 L140.547,84.499 Z" id="Fill-1" stroke="#95989D" fill-opacity="0.949999988" fill="#3C92CA" mask="url(#mask-2)"></path>
            </g>
            <path d="M207.301,0.96 L166.711,0.96 C160.801,0.96 155.992,5.769 155.992,11.679 L155.992,52.269 C155.992,58.179 160.801,62.987 166.711,62.987 L183.004,62.987 L183.004,154.085 C183.004,156.292 184.797,158.085 187.004,158.085 C189.215,158.085 191.004,156.292 191.004,154.085 L191.004,62.987 L207.301,62.987 C213.211,62.987 218.02,58.179 218.02,52.269 L218.02,11.679 C218.02,5.769 213.211,0.96 207.301,0.96 L207.301,0.96 Z M198.105,34.612 C195.773,36.714 192.336,37.78 187.887,37.78 L182.012,37.78 C181.305,37.78 180.73,38.355 180.73,39.062 L180.73,48.972 C180.73,50.05 179.855,50.925 178.777,50.925 L174.328,50.925 C173.25,50.925 172.375,50.05 172.375,48.972 L172.375,14.976 C172.375,13.897 173.25,13.022 174.328,13.022 L185.539,13.022 C192.969,13.022 195.738,14.144 198.02,16.077 C200.422,18.116 201.641,21.237 201.641,25.362 C201.637,29.39 200.453,32.499 198.105,34.612 L198.105,34.612 Z" id="Fill-4" stroke="#95989D" fill-opacity="0.949999988" fill="#3C92CA"></path>
            <path d="M191.746,21.23 C190.66,20.413 188.742,19.995 186.043,19.995 L182.012,19.995 C181.305,19.995 180.73,20.569 180.73,21.276 L180.73,29.421 C180.73,30.124 181.305,30.698 182.012,30.698 L184.426,30.698 C185.312,30.698 186.746,30.636 187.621,30.554 C188.469,30.476 190.867,30.128 191.746,29.464 C192.801,28.667 193.336,27.284 193.336,25.362 C193.336,23.421 192.801,22.03 191.746,21.23 L191.746,21.23 Z" id="Fill-5" stroke="#95989D" fill-opacity="0.949999988" fill="#3C92CA"></path>
        </g>
    </g>
</svg>