<?xml version="1.0" encoding="UTF-8" standalone="no"?>
<svg width="47px" height="47px" viewBox="0 0 47 47" version="1.1" xmlns="http://www.w3.org/2000/svg" xmlns:xlink="http://www.w3.org/1999/xlink">
    <!-- Generator: Sketch 3.6.1 (26313) - http://www.bohemiancoding.com/sketch -->
    <title>pin-code</title>
    <desc>Created with Sketch.</desc>
    <defs></defs>
    <g id="Page-1" stroke="none" stroke-width="1" fill="none" fill-rule="evenodd">
        <g id="pin-code">
            <path d="M46.398,23.799 C46.398,36.612 36.012,46.998 23.199,46.998 C10.387,46.998 0,36.612 0,23.799 C0,10.987 10.387,0.6 23.199,0.6 C36.012,0.6 46.398,10.987 46.398,23.799 L46.398,23.799 Z" id="Fill-1"></path>
            <path d="M23.199,2.998 C34.668,2.998 44,12.33 44,23.799 C44,35.268 34.668,44.6 23.199,44.6 C11.73,44.6 2.398,35.268 2.398,23.799 C2.398,12.33 11.73,2.998 23.199,2.998 L23.199,2.998 Z M23.199,0.6 C10.387,0.6 0,10.987 0,23.799 C0,36.612 10.387,46.998 23.199,46.998 C36.012,46.998 46.398,36.612 46.398,23.799 C46.398,10.987 36.012,0.6 23.199,0.6 L23.199,0.6 Z" id="Fill-2" fill="#575A5C"></path>
            <path d="M11.566,20.034 C11.254,19.721 10.746,19.721 10.434,20.034 L8.602,21.87 L6.766,20.034 C6.453,19.721 5.945,19.721 5.633,20.034 C5.32,20.346 5.32,20.854 5.633,21.166 L7.469,22.998 L5.633,24.834 C5.32,25.147 5.32,25.655 5.633,25.967 C5.789,26.123 5.996,26.202 6.199,26.202 C6.406,26.202 6.609,26.123 6.766,25.967 L8.602,24.131 L10.434,25.967 C10.59,26.123 10.797,26.202 11,26.202 C11.203,26.202 11.41,26.123 11.566,25.967 C11.879,25.655 11.879,25.147 11.566,24.834 L9.73,22.998 L11.566,21.166 C11.879,20.854 11.879,20.346 11.566,20.034 L11.566,20.034 Z" id="Fill-3" fill="#1E8596"></path>
            <path d="M21.164,20.034 C20.852,19.721 20.348,19.721 20.035,20.034 L18.199,21.87 L16.367,20.034 C16.055,19.721 15.547,19.721 15.234,20.034 C14.922,20.346 14.922,20.854 15.234,21.166 L17.07,22.998 L15.234,24.834 C14.922,25.147 14.922,25.655 15.234,25.967 C15.391,26.123 15.594,26.202 15.801,26.202 C16.004,26.202 16.211,26.123 16.367,25.967 L18.199,24.131 L20.035,25.967 C20.191,26.123 20.395,26.202 20.602,26.202 C20.805,26.202 21.008,26.123 21.164,25.967 C21.477,25.655 21.477,25.147 21.164,24.834 L19.332,22.998 L21.164,21.166 C21.477,20.854 21.477,20.346 21.164,20.034 L21.164,20.034 Z" id="Fill-4" fill="#1E8596"></path>
            <path d="M29.332,22.998 L31.164,21.166 C31.477,20.854 31.477,20.346 31.164,20.034 C30.852,19.721 30.348,19.721 30.035,20.034 L28.199,21.87 L26.367,20.034 C26.055,19.721 25.547,19.721 25.234,20.034 C24.922,20.346 24.922,20.854 25.234,21.166 L27.07,22.998 L25.234,24.834 C24.922,25.147 24.922,25.655 25.234,25.967 C25.391,26.123 25.594,26.202 25.801,26.202 C26.004,26.202 26.211,26.123 26.367,25.967 L28.199,24.131 L30.035,25.967 C30.191,26.123 30.395,26.202 30.602,26.202 C30.805,26.202 31.008,26.123 31.164,25.967 C31.477,25.655 31.477,25.147 31.164,24.834 L29.332,22.998 Z" id="Fill-5" fill="#1E8596"></path>
            <path d="M11.398,27.799 L5.801,27.799 C5.359,27.799 5,28.159 5,28.6 C5,29.041 5.359,29.401 5.801,29.401 L11.398,29.401 C11.844,29.401 12.199,29.041 12.199,28.6 C12.199,28.159 11.844,27.799 11.398,27.799 L11.398,27.799 Z" id="Fill-6" fill="#1CB8D1"></path>
            <path d="M21,27.799 L15.398,27.799 C14.957,27.799 14.602,28.159 14.602,28.6 C14.602,29.041 14.957,29.401 15.398,29.401 L21,29.401 C21.441,29.401 21.801,29.041 21.801,28.6 C21.801,28.159 21.441,27.799 21,27.799 L21,27.799 Z" id="Fill-7" fill="#1CB8D1"></path>
            <path d="M31,27.799 L25.398,27.799 C24.957,27.799 24.602,28.159 24.602,28.6 C24.602,29.041 24.957,29.401 25.398,29.401 L31,29.401 C31.441,29.401 31.801,29.041 31.801,28.6 C31.801,28.159 31.441,27.799 31,27.799 L31,27.799 Z" id="Fill-8" fill="#1CB8D1"></path>
            <path d="M40.602,27.799 L35,27.799 C34.559,27.799 34.199,28.159 34.199,28.6 C34.199,29.041 34.559,29.401 35,29.401 L40.602,29.401 C41.043,29.401 41.398,29.041 41.398,28.6 C41.398,28.159 41.043,27.799 40.602,27.799 L40.602,27.799 Z" id="Fill-9" fill="#1CB8D1"></path>
        </g>
    </g>
</svg>